<svg width="107" height="123" viewBox="0 0 107 123" fill="none" xmlns="http://www.w3.org/2000/svg">
<path d="M0 110.821C0 117.151 5.13504 122.286 11.4643 122.286H95.5357C101.865 122.286 107 117.151 107 110.821V45.8571H0V110.821ZM76.4286 64.0089C76.4286 62.4326 77.7183 61.1429 79.2946 61.1429H88.8482C90.4246 61.1429 91.7143 62.4326 91.7143 64.0089V73.5625C91.7143 75.1388 90.4246 76.4286 88.8482 76.4286H79.2946C77.7183 76.4286 76.4286 75.1388 76.4286 73.5625V64.0089ZM76.4286 94.5804C76.4286 93.004 77.7183 91.7143 79.2946 91.7143H88.8482C90.4246 91.7143 91.7143 93.004 91.7143 94.5804V104.134C91.7143 105.71 90.4246 107 88.8482 107H79.2946C77.7183 107 76.4286 105.71 76.4286 104.134V94.5804ZM45.8571 64.0089C45.8571 62.4326 47.1469 61.1429 48.7232 61.1429H58.2768C59.8531 61.1429 61.1429 62.4326 61.1429 64.0089V73.5625C61.1429 75.1388 59.8531 76.4286 58.2768 76.4286H48.7232C47.1469 76.4286 45.8571 75.1388 45.8571 73.5625V64.0089ZM45.8571 94.5804C45.8571 93.004 47.1469 91.7143 48.7232 91.7143H58.2768C59.8531 91.7143 61.1429 93.004 61.1429 94.5804V104.134C61.1429 105.71 59.8531 107 58.2768 107H48.7232C47.1469 107 45.8571 105.71 45.8571 104.134V94.5804ZM15.2857 64.0089C15.2857 62.4326 16.5754 61.1429 18.1518 61.1429H27.7054C29.2817 61.1429 30.5714 62.4326 30.5714 64.0089V73.5625C30.5714 75.1388 29.2817 76.4286 27.7054 76.4286H18.1518C16.5754 76.4286 15.2857 75.1388 15.2857 73.5625V64.0089ZM15.2857 94.5804C15.2857 93.004 16.5754 91.7143 18.1518 91.7143H27.7054C29.2817 91.7143 30.5714 93.004 30.5714 94.5804V104.134C30.5714 105.71 29.2817 107 27.7054 107H18.1518C16.5754 107 15.2857 105.71 15.2857 104.134V94.5804ZM95.5357 15.2857H84.0714V3.82143C84.0714 1.71964 82.3518 0 80.25 0H72.6071C70.5054 0 68.7857 1.71964 68.7857 3.82143V15.2857H38.2143V3.82143C38.2143 1.71964 36.4946 0 34.3929 0H26.75C24.6482 0 22.9286 1.71964 22.9286 3.82143V15.2857H11.4643C5.13504 15.2857 0 20.4208 0 26.75V38.2143H107V26.75C107 20.4208 101.865 15.2857 95.5357 15.2857Z" fill="white" fill-opacity="0.1"/>
</svg>
