<svg width="284" height="66" viewBox="0 0 284 66" fill="none" xmlns="http://www.w3.org/2000/svg">
<rect width="283.482" height="52.4819" rx="11.9277" fill="url(#paint0_linear_4_134)"/>
<path d="M40.7821 40.3564C39.7789 40.3564 39.0133 40.0792 38.4853 39.5248C37.9573 38.9704 37.6933 38.1916 37.6933 37.1884V17.1508H30.6841C29.8657 17.1508 29.2321 16.9264 28.7833 16.4776C28.3345 16.0288 28.1101 15.4084 28.1101 14.6164C28.1101 13.798 28.3345 13.1776 28.7833 12.7552C29.2321 12.3064 29.8657 12.082 30.6841 12.082H50.8405C51.6589 12.082 52.2925 12.3064 52.7413 12.7552C53.1901 13.1776 53.4145 13.798 53.4145 14.6164C53.4145 15.4084 53.1901 16.0288 52.7413 16.4776C52.2925 16.9264 51.6589 17.1508 50.8405 17.1508H43.8313V37.1884C43.8313 38.1916 43.5673 38.9704 43.0393 39.5248C42.5377 40.0792 41.7853 40.3564 40.7821 40.3564ZM59.2688 40C58.2392 40 57.4472 39.7228 56.8928 39.1684C56.3384 38.614 56.0612 37.822 56.0612 36.7924V15.2896C56.0612 14.26 56.3384 13.468 56.8928 12.9136C57.4472 12.3592 58.2392 12.082 59.2688 12.082H73.0892C73.8812 12.082 74.4752 12.2932 74.8712 12.7156C75.2936 13.1116 75.5048 13.6924 75.5048 14.458C75.5048 15.25 75.2936 15.8572 74.8712 16.2796C74.4752 16.6756 73.8812 16.8736 73.0892 16.8736H61.922V23.4076H72.1784C72.9968 23.4076 73.604 23.6188 74 24.0412C74.4224 24.4372 74.6336 25.0312 74.6336 25.8232C74.6336 26.6152 74.4224 27.2224 74 27.6448C73.604 28.0408 72.9968 28.2388 72.1784 28.2388H61.922V35.2084H73.0892C73.8812 35.2084 74.4752 35.4196 74.8712 35.842C75.2936 36.238 75.5048 36.8188 75.5048 37.5844C75.5048 38.3764 75.2936 38.9836 74.8712 39.406C74.4752 39.802 73.8812 40 73.0892 40H59.2688ZM93.5809 40.4356C90.5713 40.4356 87.9973 39.8416 85.8589 38.6536C83.7205 37.4656 82.0705 35.8024 80.9089 33.664C79.7737 31.4992 79.2061 28.9516 79.2061 26.0212C79.2061 23.83 79.5229 21.8632 80.1565 20.1208C80.8165 18.352 81.7669 16.8472 83.0077 15.6064C84.2485 14.3392 85.7533 13.3624 87.5221 12.676C89.3173 11.9896 91.3369 11.6464 93.5809 11.6464C94.9009 11.6464 96.2341 11.818 97.5805 12.1612C98.9533 12.478 100.141 12.94 101.145 13.5472C101.805 13.9168 102.253 14.3788 102.491 14.9332C102.729 15.4876 102.795 16.042 102.689 16.5964C102.61 17.1508 102.385 17.626 102.016 18.022C101.673 18.418 101.237 18.6688 100.709 18.7744C100.181 18.88 99.5869 18.7612 98.9269 18.418C98.1349 17.9428 97.3033 17.5996 96.4321 17.3884C95.5609 17.1772 94.6765 17.0716 93.7789 17.0716C92.0101 17.0716 90.5185 17.428 89.3041 18.1408C88.1161 18.8272 87.2185 19.8304 86.6113 21.1504C86.0041 22.4704 85.7005 24.094 85.7005 26.0212C85.7005 27.922 86.0041 29.5456 86.6113 30.892C87.2185 32.2384 88.1161 33.268 89.3041 33.9808C90.5185 34.6672 92.0101 35.0104 93.7789 35.0104C94.6237 35.0104 95.4817 34.9048 96.3529 34.6936C97.2505 34.4824 98.1085 34.1524 98.9269 33.7036C99.6133 33.3604 100.221 33.2416 100.749 33.3472C101.303 33.4264 101.752 33.664 102.095 34.06C102.465 34.4296 102.689 34.8784 102.768 35.4064C102.874 35.9344 102.821 36.4624 102.61 36.9904C102.399 37.5184 102.003 37.9672 101.422 38.3368C100.445 38.9968 99.2437 39.5116 97.8181 39.8812C96.3925 40.2508 94.9801 40.4356 93.5809 40.4356ZM110.197 40.3564C109.194 40.3564 108.428 40.0792 107.9 39.5248C107.372 38.9704 107.108 38.1916 107.108 37.1884V14.8936C107.108 13.8904 107.372 13.1116 107.9 12.5572C108.428 12.0028 109.194 11.7256 110.197 11.7256C111.174 11.7256 111.926 12.0028 112.454 12.5572C112.982 13.1116 113.246 13.8904 113.246 14.8936V23.2888H126.235V14.8936C126.235 13.8904 126.499 13.1116 127.027 12.5572C127.555 12.0028 128.307 11.7256 129.284 11.7256C130.287 11.7256 131.053 12.0028 131.581 12.5572C132.109 13.1116 132.373 13.8904 132.373 14.8936V37.1884C132.373 38.1916 132.109 38.9704 131.581 39.5248C131.053 40.0792 130.287 40.3564 129.284 40.3564C128.307 40.3564 127.555 40.0792 127.027 39.5248C126.499 38.9704 126.235 38.1916 126.235 37.1884V28.3972H113.246V37.1884C113.246 38.1916 112.982 38.9704 112.454 39.5248C111.952 40.0792 111.2 40.3564 110.197 40.3564ZM159.403 40.3564C158.558 40.3564 157.871 40.1584 157.343 39.7624C156.815 39.34 156.393 38.7064 156.076 37.8616L148.077 15.3688C147.734 14.3656 147.8 13.5076 148.275 12.7948C148.777 12.082 149.635 11.7256 150.849 11.7256C151.694 11.7256 152.341 11.9236 152.789 12.3196C153.265 12.7156 153.647 13.336 153.938 14.1808L160.472 33.6244H158.769L165.659 14.2204C165.976 13.3756 166.359 12.7552 166.808 12.3592C167.283 11.9368 167.903 11.7256 168.669 11.7256C169.408 11.7256 170.002 11.9368 170.451 12.3592C170.9 12.7552 171.283 13.3888 171.599 14.26L178.173 33.6244H176.708L183.361 14.1808C183.625 13.3624 183.994 12.7552 184.469 12.3592C184.945 11.9368 185.591 11.7256 186.41 11.7256C187.439 11.7256 188.192 12.082 188.667 12.7948C189.142 13.5076 189.195 14.3656 188.825 15.3688L180.747 37.9012C180.457 38.7196 180.061 39.34 179.559 39.7624C179.057 40.1584 178.371 40.3564 177.5 40.3564C176.655 40.3564 175.982 40.1584 175.48 39.7624C174.979 39.34 174.569 38.7064 174.253 37.8616L167.996 20.1604H168.946L162.61 37.9012C162.293 38.7196 161.884 39.34 161.383 39.7624C160.907 40.1584 160.247 40.3564 159.403 40.3564ZM196.631 40C195.602 40 194.81 39.7228 194.255 39.1684C193.701 38.614 193.424 37.822 193.424 36.7924V15.2896C193.424 14.26 193.701 13.468 194.255 12.9136C194.81 12.3592 195.602 12.082 196.631 12.082H210.452C211.244 12.082 211.838 12.2932 212.234 12.7156C212.656 13.1116 212.867 13.6924 212.867 14.458C212.867 15.25 212.656 15.8572 212.234 16.2796C211.838 16.6756 211.244 16.8736 210.452 16.8736H199.284V23.4076H209.541C210.359 23.4076 210.966 23.6188 211.362 24.0412C211.785 24.4372 211.996 25.0312 211.996 25.8232C211.996 26.6152 211.785 27.2224 211.362 27.6448C210.966 28.0408 210.359 28.2388 209.541 28.2388H199.284V35.2084H210.452C211.244 35.2084 211.838 35.4196 212.234 35.842C212.656 36.238 212.867 36.8188 212.867 37.5844C212.867 38.3764 212.656 38.9836 212.234 39.406C211.838 39.802 211.244 40 210.452 40H196.631ZM220.608 40C219.578 40 218.786 39.7228 218.232 39.1684C217.677 38.614 217.4 37.822 217.4 36.7924V15.2896C217.4 14.26 217.677 13.468 218.232 12.9136C218.786 12.3592 219.578 12.082 220.608 12.082H234.428C235.22 12.082 235.814 12.2932 236.21 12.7156C236.633 13.1116 236.844 13.6924 236.844 14.458C236.844 15.25 236.633 15.8572 236.21 16.2796C235.814 16.6756 235.22 16.8736 234.428 16.8736H223.261V23.4076H233.517C234.336 23.4076 234.943 23.6188 235.339 24.0412C235.761 24.4372 235.973 25.0312 235.973 25.8232C235.973 26.6152 235.761 27.2224 235.339 27.6448C234.943 28.0408 234.336 28.2388 233.517 28.2388H223.261V35.2084H234.428C235.22 35.2084 235.814 35.4196 236.21 35.842C236.633 36.238 236.844 36.8188 236.844 37.5844C236.844 38.3764 236.633 38.9836 236.21 39.406C235.814 39.802 235.22 40 234.428 40H220.608ZM244.466 40.3564C243.462 40.3564 242.697 40.0792 242.169 39.5248C241.641 38.9704 241.377 38.1916 241.377 37.1884V14.854C241.377 13.8508 241.641 13.0852 242.169 12.5572C242.697 12.0028 243.462 11.7256 244.466 11.7256C245.442 11.7256 246.195 12.0028 246.723 12.5572C247.251 13.0852 247.515 13.8508 247.515 14.854V24.2392H247.594L258.128 13.2304C258.576 12.7552 259.038 12.3988 259.514 12.1612C260.015 11.8972 260.583 11.7652 261.216 11.7652C262.14 11.7652 262.8 12.0028 263.196 12.478C263.619 12.9532 263.804 13.5076 263.751 14.1412C263.698 14.7748 263.408 15.3688 262.88 15.9232L252.306 26.734L252.346 24.0808L263.434 35.9212C264.041 36.5812 264.345 37.2544 264.345 37.9408C264.371 38.6272 264.147 39.208 263.672 39.6832C263.223 40.132 262.55 40.3564 261.652 40.3564C260.886 40.3564 260.266 40.198 259.791 39.8812C259.342 39.5644 258.84 39.1024 258.286 38.4952L247.594 27.2488H247.515V37.1884C247.515 38.1916 247.251 38.9704 246.723 39.5248C246.221 40.0792 245.469 40.3564 244.466 40.3564Z" fill="white"/>
<defs>
<linearGradient id="paint0_linear_4_134" x1="-23.5521" y1="26.241" x2="289.049" y2="26.241" gradientUnits="userSpaceOnUse">
<stop stop-color="#6B247F"/>
<stop offset="0.726389" stop-color="#732580"/>
<stop offset="1" stop-color="#B72F8A"/>
</linearGradient>
</defs>
</svg>
